# Blender v2.93.1 OBJ File: 'ak47ult.blend'
# www.blender.org
mtllib ak47ps.mtl
o Plane
v 0.020666 0.013738 -0.057776
v 0.020636 0.119783 -0.089766
v 0.020666 0.003706 -0.226035
v 0.020636 0.112495 -0.252536
v 0.020663 -0.090563 0.006269
v 0.020663 -0.128043 -0.166565
v 0.020660 -0.186630 0.105996
v 0.020660 -0.222280 -0.097946
v 0.020660 -0.207673 0.136188
v 0.020657 -0.345795 0.042038
v 0.000001 0.013737 -0.057776
v -0.000013 0.119781 -0.089766
v -0.000001 0.003705 -0.226035
v -0.000016 0.112494 -0.252536
v 0.000015 -0.090565 0.006269
v 0.000017 -0.128044 -0.166565
v 0.000030 -0.186632 0.105996
v 0.000030 -0.222282 -0.097945
v 0.000033 -0.207675 0.136188
v 0.000049 -0.345796 0.042038
v -0.020664 0.013733 -0.057775
v -0.020662 0.119777 -0.089765
v -0.020669 0.003701 -0.226034
v -0.020668 0.112490 -0.252535
v -0.020632 -0.090568 0.006270
v -0.020629 -0.128048 -0.166564
v -0.020601 -0.186635 0.105996
v -0.020600 -0.222285 -0.097945
v -0.020594 -0.207679 0.136189
v -0.020560 -0.345800 0.042039
vt 0.497892 0.458908
vt 0.522635 0.570668
vt 0.569618 0.557269
vt 0.553488 0.460274
vt 0.513446 0.519994
vt 0.557636 0.479094
vt 0.531813 0.399467
vt 0.489491 0.433416
vt 0.500674 0.467697
vt 0.544951 0.450709
vt 0.509982 0.338064
vt 0.461133 0.376810
vt 0.442050 0.347147
vt 0.503131 0.323962
vt 0.460613 0.258139
vt 0.427416 0.337344
vt 0.566130 0.557269
vt 0.547287 0.457948
vt 0.505045 0.478101
vt 0.521174 0.565020
vt 0.482997 0.290601
vt 0.458858 0.257333
vt 0.426304 0.341043
vt 0.444906 0.364420
vt 0.462617 0.270110
vt 0.522188 0.362883
vt 0.478731 0.413664
vt 0.433321 0.340422
vt 0.563259 0.527107
vt 0.552253 0.453182
vt 0.504588 0.483190
vt 0.517299 0.558898
vt 0.538465 0.402450
vt 0.498123 0.323599
vt 0.464756 0.392016
vt 0.497178 0.459017
vt 0.524757 0.374180
vt 0.556914 0.469538
vt 0.510075 0.515798
vt 0.484480 0.438259
vt 0.472373 0.416247
vt 0.446794 0.369741
vt 0.477411 0.291456
vt 0.516941 0.370516
vt 0.512489 0.594216
vt 0.512195 0.629895
vt 0.499186 0.629578
vt 0.498698 0.594534
vt 0.557617 0.480469
vt 0.525391 0.373047
vt 0.490234 0.449219
vt 0.514648 0.513672
vt 0.553704 0.452753
vt 0.569329 0.565057
vt 0.516594 0.560174
vt 0.502434 0.495721
vt 0.000000 0.000000
vt 1.000000 0.000000
vt 1.000000 1.000000
vt 0.000000 1.000000
vt 0.000000 1.000000
vt 0.000000 0.000000
vt 0.054257 0.858809
vt 0.196875 0.962795
vt 0.196875 0.962795
vt 0.000000 0.000000
vt 0.196875 0.962795
vt 0.258883 0.034104
vt 0.497892 0.458908
vt 0.553488 0.460274
vt 0.569618 0.557269
vt 0.522635 0.570668
vt 0.513446 0.519994
vt 0.489491 0.433416
vt 0.531813 0.399467
vt 0.557636 0.479094
vt 0.500674 0.467697
vt 0.461133 0.376810
vt 0.509982 0.338064
vt 0.544951 0.450709
vt 0.442050 0.347147
vt 0.427416 0.337344
vt 0.460613 0.258139
vt 0.503131 0.323962
vt 0.521174 0.565020
vt 0.505045 0.478101
vt 0.444906 0.364420
vt 0.426304 0.341043
vt 0.433321 0.340422
vt 0.478731 0.413664
vt 0.517299 0.558898
vt 0.504588 0.483190
vt 0.497178 0.459017
vt 0.464756 0.392016
vt 0.484480 0.438259
vt 0.510075 0.515798
vt 0.516941 0.370516
vt 0.477411 0.291456
vt 0.498698 0.594534
vt 0.499186 0.629578
vt 0.514648 0.513672
vt 0.490234 0.449219
vt 0.502434 0.495721
vt 0.516594 0.560174
vn -1.0000 -0.0003 0.0000
vn -1.0000 0.0000 -0.0000
vn -0.0000 0.2367 0.9716
vn -0.0000 0.5632 -0.8263
vn -0.0000 0.7498 0.6616
vn 0.0000 -0.2888 -0.9574
vn -0.0000 0.5886 0.8084
vn -0.0000 0.4114 0.9114
vn 0.0001 -0.8204 -0.5718
vn 0.0001 -0.9990 0.0447
vn 0.0000 -0.7202 -0.6938
vn 0.0000 -0.5233 -0.8522
vn -1.0000 -0.0001 0.0000
vn 1.0000 -0.0000 -0.0000
vn 1.0000 0.0003 -0.0000
vn -0.0001 0.5632 -0.8263
vn -0.0001 0.7498 0.6616
vn -0.0001 0.5886 0.8084
vn 0.0002 -0.9990 0.0447
vn 0.0001 -0.7202 -0.6938
vn 0.0001 -0.5233 -0.8522
usemtl Material.002
s off
f 1/1/1 2/2/1 4/3/1 3/4/1
f 1/5/2 3/6/2 6/7/2 5/8/2
f 5/9/2 6/10/2 8/11/2 7/12/2
f 7/13/2 8/14/2 10/15/2 9/16/2
f 14/17/3 13/18/3 3/19/3 4/20/3
f 20/21/4 19/22/4 9/23/4 10/24/4
f 18/25/5 20/26/5 10/27/5 8/28/5
f 11/29/6 12/30/6 2/31/6 1/32/6
f 16/33/7 18/34/7 8/35/7 6/36/7
f 13/37/8 16/38/8 6/39/8 3/40/8
f 19/41/9 17/42/9 7/43/9 9/44/9
f 12/45/10 14/46/10 4/47/10 2/48/10
f 17/49/11 15/50/11 5/51/11 7/52/11
f 15/53/12 11/54/12 1/55/12 5/56/12
f 11/57/13 12/58/13 14/59/13 13/60/13
f 11/57/13 13/60/13 16/61/13 15/62/13
f 15/63/13 16/64/13 18/65/13 17/66/13
f 17/66/13 18/65/13 20/67/13 19/68/13
f 21/69/14 23/70/14 24/71/14 22/72/14
f 21/73/15 25/74/15 26/75/15 23/76/15
f 25/77/15 27/78/15 28/79/15 26/80/15
f 27/81/15 29/82/15 30/83/15 28/84/15
f 14/17/3 24/85/3 23/86/3 13/18/3
f 20/21/16 30/87/16 29/88/16 19/22/16
f 18/25/17 28/89/17 30/90/17 20/26/17
f 11/29/6 21/91/6 22/92/6 12/30/6
f 16/33/18 26/93/18 28/94/18 18/34/18
f 13/37/8 23/95/8 26/96/8 16/38/8
f 19/41/9 29/97/9 27/98/9 17/42/9
f 12/45/19 22/99/19 24/100/19 14/46/19
f 17/49/20 27/101/20 25/102/20 15/50/20
f 15/53/21 25/103/21 21/104/21 11/54/21
o Plane.001
v -0.019662 0.269432 1.144557
v 0.025417 0.175820 -0.945771
v 0.025417 -0.027689 -0.893714
v 0.025417 0.127217 -1.221179
v 0.025417 -0.106387 -1.158180
v 0.025417 0.151196 -0.800765
v 0.025417 0.027031 -0.754181
v 0.025417 0.205915 -0.609248
v 0.025417 0.100901 -0.548984
v 0.025417 0.227803 0.110309
v 0.025417 0.108617 0.132207
v 0.025417 0.293466 -0.524433
v 0.025417 0.301797 0.110309
v 0.025417 0.230539 0.178708
v 0.025417 0.125525 0.178781
v 0.025417 0.233275 0.548062
v 0.025417 0.128261 0.548135
v 0.025417 0.301955 0.110309
v 0.025417 0.302813 0.178708
v 0.025417 0.294625 0.548062
v 0.025417 0.228743 0.824451
v 0.025417 0.288970 0.778747
v 0.025417 0.216859 -0.249469
v 0.025417 0.100901 -0.246661
v 0.025417 0.222331 -0.069580
v 0.025417 0.100901 -0.396454
v 0.025417 -0.139863 -0.592759
v 0.025417 -0.169958 -0.492213
v 0.025417 0.016087 -0.276756
v 0.025417 0.016087 -0.426550
v 0.025417 0.178032 0.178744
v 0.025417 0.180768 0.548099
v 0.025417 0.231907 0.363385
v 0.025417 0.126893 0.363458
v 0.025417 0.221875 1.229772
v 0.025417 0.182668 1.229808
v 0.025417 0.329515 0.040673
v 0.025417 0.331152 0.178708
v 0.025417 0.227575 0.888917
v 0.025417 0.181718 0.888953
v 0.025417 0.224725 1.059344
v 0.025417 0.223300 1.144558
v 0.025417 0.270856 1.099113
v 0.025417 0.269432 1.144558
v 0.025417 0.347448 1.107214
v 0.025417 0.346023 1.143012
v 0.000000 0.175820 -0.945771
v -0.000000 -0.027689 -0.893715
v 0.000000 0.127217 -1.221180
v -0.000000 -0.106387 -1.158180
v 0.000000 0.151196 -0.800765
v 0.000000 0.027031 -0.754181
v 0.000000 0.205915 -0.609248
v 0.000000 0.100901 -0.548984
v 0.000000 0.227803 0.110308
v 0.000000 0.108617 0.132206
v 0.000000 0.293466 -0.524434
v 0.000000 0.301797 0.110308
v 0.000000 0.125525 0.178780
v 0.000000 0.233275 0.548062
v 0.000000 0.128261 0.548135
v 0.000000 0.301955 0.110308
v 0.000000 0.302813 0.178707
v 0.000000 0.294625 0.548062
v 0.000000 0.228743 0.824450
v 0.000000 0.288970 0.778747
v 0.000000 0.100901 -0.246661
v 0.000000 0.100901 -0.396455
v -0.000000 -0.139863 -0.592760
v -0.000000 -0.169958 -0.492213
v 0.000000 0.016087 -0.276757
v 0.000000 0.016087 -0.426550
v 0.000000 0.180768 0.548098
v 0.000000 0.126893 0.363457
v 0.000000 0.221875 1.229771
v 0.000000 0.182668 1.229808
v 0.000000 0.329515 0.040672
v 0.000000 0.331152 0.178707
v 0.000000 0.227575 0.888916
v 0.000000 0.181718 0.888953
v 0.000000 0.224725 1.059344
v 0.000000 0.223300 1.144557
v 0.000000 0.270856 1.099113
v 0.000000 0.269432 1.144557
v 0.019662 0.269432 1.144557
v 0.000000 0.347448 1.107213
v 0.000000 0.346023 1.143011
v -0.025417 0.175820 -0.945771
v -0.025417 -0.027689 -0.893714
v -0.025417 0.127217 -1.221179
v -0.025417 -0.106387 -1.158180
v -0.025417 0.151196 -0.800765
v -0.025417 0.027031 -0.754181
v -0.025417 0.205915 -0.609248
v -0.025417 0.100901 -0.548984
v -0.025417 0.227803 0.110309
v -0.025417 0.108617 0.132207
v -0.025417 0.293466 -0.524433
v -0.025417 0.301797 0.110309
v -0.025417 0.230539 0.178708
v -0.025417 0.125525 0.178781
v -0.025417 0.233275 0.548062
v -0.025417 0.128261 0.548135
v -0.025417 0.301955 0.110309
v -0.025417 0.302813 0.178708
v -0.025417 0.294625 0.548062
v -0.025417 0.228743 0.824451
v -0.025417 0.288970 0.778747
v -0.025417 0.216859 -0.249469
v -0.025417 0.100901 -0.246661
v -0.025417 0.222331 -0.069580
v -0.025417 0.100901 -0.396454
v -0.025417 -0.139863 -0.592759
v -0.025417 -0.169958 -0.492213
v -0.025417 0.016087 -0.276756
v -0.025417 0.016087 -0.426550
v -0.025417 0.178032 0.178744
v -0.025417 0.180768 0.548099
v -0.025417 0.231907 0.363385
v -0.025417 0.126893 0.363458
v -0.025417 0.221875 1.229772
v -0.025417 0.182668 1.229808
v -0.025417 0.329515 0.040673
v -0.025417 0.331152 0.178708
v -0.025417 0.227575 0.888917
v -0.025417 0.181718 0.888953
v -0.025417 0.224725 1.059344
v -0.025417 0.223300 1.144558
v -0.025417 0.270856 1.099113
v -0.025417 0.269432 1.144558
v -0.025417 0.347448 1.107214
v -0.025417 0.346023 1.143012
vt 0.229429 0.621629
vt 0.229429 0.621629
vt 0.229429 0.621629
vt 0.229429 0.621629
vt 0.577008 0.642052
vt 0.577008 0.642052
vt 0.577008 0.642052
vt 0.577008 0.642052
vt 0.607813 0.681637
vt 0.607813 0.681637
vt 0.607813 0.681637
vt 0.607813 0.681637
vt 0.229429 0.621629
vt 0.229429 0.621629
vt 0.229429 0.621629
vt 0.229429 0.621629
vt 0.000000 0.000000
vt 0.000000 0.000000
vt 0.000000 0.000000
vt 0.000000 0.000000
vt 0.577008 0.642052
vt 0.577008 0.642052
vt 0.165871 0.635580
vt 0.165871 0.635580
vt 0.165871 0.635580
vt 0.165871 0.635580
vt 0.769531 0.570312
vt 0.769531 0.570312
vt 0.769531 0.570312
vt 0.769531 0.570312
vt 0.059683 0.742544
vt 0.063170 0.737893
vt 0.065496 0.696038
vt 0.075572 0.649532
vt 0.769531 0.570312
vt 0.769531 0.570312
vt 0.769531 0.570312
vt 0.769531 0.570312
vt 0.053094 0.660384
vt 0.047669 0.742544
vt 0.048831 0.653408
vt 0.080223 0.653408
vt 0.769531 0.570312
vt 0.769531 0.570312
vt 0.769531 0.570312
vt 0.769531 0.570312
vt 0.769531 0.570312
vt 0.769531 0.570312
vt 0.769531 0.570312
vt 0.769531 0.570312
vt 0.769531 0.570312
vt 0.769531 0.570312
vt 0.000000 0.000000
vt 0.000000 0.000000
vt 0.000000 0.000000
vt 0.408744 0.668246
vt 0.408744 0.668246
vt 0.408744 0.668246
vt 0.408744 0.668246
vt 0.769531 0.570312
vt 0.769531 0.570312
vt 0.843573 0.499163
vt 0.959695 0.430735
vt 0.983587 0.561981
vt 0.889644 0.600465
vt 0.866122 0.485512
vt 0.880293 0.614270
vt 0.806572 0.590392
vt 0.793076 0.534388
vt 0.818443 0.515821
vt 0.820848 0.602566
vt 0.748494 0.636122
vt 0.743977 0.568061
vt 0.459078 0.664736
vt 0.522681 0.662373
vt 0.603971 0.660800
vt 0.735232 0.658252
vt 0.705451 0.701685
vt 0.459429 0.702982
vt 0.406214 0.625516
vt 0.405980 0.664264
vt 0.456123 0.662665
vt 0.456620 0.590487
vt 0.406623 0.594823
vt 0.282159 0.675255
vt 0.349648 0.676563
vt 0.408566 0.676612
vt 0.408340 0.717890
vt 0.282325 0.715223
vt 1.000000 0.000000
vt 0.500000 0.000000
vt 0.000000 0.000000
vt 0.000000 0.000000
vt 0.407357 0.664576
vt 0.456873 0.665552
vt 0.456964 0.710856
vt 0.406674 0.709983
vt 0.283860 0.700374
vt 0.284245 0.647622
vt 0.183710 0.647815
vt 0.192861 0.700245
vt 0.720929 0.403476
vt 0.702476 0.405208
vt 0.675240 0.536048
vt 0.694532 0.546329
vt 0.673968 0.584930
vt 0.596819 0.584930
vt 0.597796 0.508758
vt 0.683733 0.519500
vt 0.405470 0.632225
vt 0.406562 0.673024
vt 0.358756 0.672770
vt 0.286140 0.672770
vt 0.286329 0.636084
vt 0.286659 0.597101
vt 0.356398 0.597162
vt 0.404998 0.594701
vt 0.044682 0.647870
vt 0.008646 0.638547
vt 0.008638 0.625636
vt 0.161250 0.626814
vt 0.161360 0.647597
vt 0.078693 0.646733
vt 0.415431 0.690491
vt 0.455906 0.686632
vt 0.441529 0.715364
vt 0.414573 0.724516
vt 0.604121 0.658649
vt 0.537453 0.658643
vt 0.458968 0.658120
vt 0.460210 0.588006
vt 0.603955 0.573299
vt 0.667969 0.569195
vt 0.741671 0.566487
vt 0.732413 0.656313
vt 0.472088 0.592754
vt 0.536069 0.592754
vt 0.536069 0.677651
vt 0.472088 0.677651
vt 0.066391 0.689143
vt 0.047553 0.688384
vt 0.048103 0.740180
vt 0.065689 0.739661
vt 0.283847 0.618647
vt 0.284095 0.654952
vt 0.161587 0.654315
vt 0.160983 0.616463
vt 0.229429 0.621629
vt 0.229429 0.621629
vt 0.229429 0.621629
vt 0.229429 0.621629
vt 0.607813 0.681637
vt 0.607813 0.681637
vt 0.000000 0.000000
vt 0.000000 0.000000
vt 0.000000 0.000000
vt 0.000000 0.000000
vt 0.000000 0.000000
vt 0.000000 0.000000
vt 0.000000 0.000000
vt 0.000000 0.000000
vt 0.000000 0.000000
vt 0.769531 0.570312
vt 0.769531 0.570312
vt 0.769531 0.570312
vt 0.769531 0.570312
vt 0.229429 0.621629
vt 0.229429 0.621629
vt 0.229429 0.621629
vt 0.229429 0.621629
vt 0.769531 0.570312
vt 0.769531 0.570312
vt 0.769531 0.570312
vt 0.769531 0.570312
vt 0.769531 0.570312
vt 0.769531 0.570312
vt 0.769531 0.570312
vt 0.769531 0.570312
vt 0.769531 0.570312
vt 0.769531 0.570312
vt 0.229429 0.621629
vt 0.229429 0.621629
vt 0.052319 0.733243
vt 0.049994 0.658833
vt 0.229429 0.621629
vt 0.229429 0.621629
vt 0.075572 0.658058
vt 0.064333 0.745644
vt 0.408744 0.668246
vt 0.408744 0.668246
vt 0.574219 0.648437
vt 0.574219 0.648437
vt 0.574219 0.648437
vt 0.574219 0.648437
vt 0.408877 0.667520
vt 0.408877 0.667520
vt 0.408877 0.667520
vt 0.408877 0.667520
vt 0.229429 0.621629
vt 0.229429 0.621629
vt 0.577008 0.642052
vt 0.577008 0.642052
vt 0.607813 0.681637
vt 0.607813 0.681637
vt 0.229429 0.621629
vt 0.229429 0.621629
vt 0.000000 0.000000
vt 0.000000 0.000000
vt 0.577008 0.642052
vt 0.165871 0.635580
vt 0.165871 0.635580
vt 0.769531 0.570312
vt 0.769531 0.570312
vt 0.075572 0.649532
vt 0.065496 0.696038
vt 0.769531 0.570312
vt 0.769531 0.570312
vt 0.080223 0.653408
vt 0.048831 0.653408
vt 0.769531 0.570312
vt 0.769531 0.570312
vt 0.769531 0.570312
vt 0.769531 0.570312
vt 0.769531 0.570312
vt 0.000000 0.000000
vt 0.408744 0.668246
vt 0.408744 0.668246
vt 0.769531 0.570312
vt 0.843573 0.499163
vt 0.889644 0.600465
vt 0.983587 0.561981
vt 0.959695 0.430735
vt 0.866122 0.485512
vt 0.793076 0.534388
vt 0.806572 0.590392
vt 0.880293 0.614270
vt 0.818443 0.515821
vt 0.743977 0.568061
vt 0.748494 0.636122
vt 0.820848 0.602566
vt 0.459078 0.664736
vt 0.459429 0.702982
vt 0.705451 0.701685
vt 0.735232 0.658252
vt 0.603971 0.660800
vt 0.522681 0.662373
vt 0.406214 0.625516
vt 0.406623 0.594823
vt 0.456620 0.590487
vt 0.456123 0.662665
vt 0.405980 0.664264
vt 0.282159 0.675255
vt 0.282325 0.715223
vt 0.408340 0.717890
vt 0.408566 0.676612
vt 0.349648 0.676563
vt 1.000000 0.000000
vt 0.000000 0.000000
vt 0.000000 0.000000
vt 0.500000 0.000000
vt 0.407357 0.664576
vt 0.406674 0.709983
vt 0.456964 0.710856
vt 0.456873 0.665552
vt 0.283860 0.700374
vt 0.192861 0.700245
vt 0.183710 0.647815
vt 0.284245 0.647622
vt 0.720929 0.403476
vt 0.694532 0.546329
vt 0.675240 0.536048
vt 0.702476 0.405208
vt 0.673968 0.584930
vt 0.683733 0.519500
vt 0.597796 0.508758
vt 0.596819 0.584930
vt 0.405470 0.632225
vt 0.404998 0.594701
vt 0.356398 0.597162
vt 0.286659 0.597101
vt 0.286329 0.636084
vt 0.286140 0.672770
vt 0.358756 0.672770
vt 0.406562 0.673024
vt 0.044682 0.647870
vt 0.078693 0.646733
vt 0.161360 0.647597
vt 0.161250 0.626814
vt 0.008638 0.625636
vt 0.008646 0.638547
vt 0.415431 0.690491
vt 0.414573 0.724516
vt 0.441529 0.715364
vt 0.455906 0.686632
vt 0.604121 0.658649
vt 0.732413 0.656313
vt 0.741671 0.566487
vt 0.667969 0.569195
vt 0.603955 0.573299
vt 0.460210 0.588006
vt 0.458968 0.658120
vt 0.537453 0.658643
vt 0.472088 0.592754
vt 0.472088 0.677651
vt 0.536069 0.677651
vt 0.536069 0.592754
vt 0.066391 0.689143
vt 0.065689 0.739661
vt 0.048103 0.740180
vt 0.047553 0.688384
vt 0.283847 0.618647
vt 0.160983 0.616463
vt 0.161587 0.654315
vt 0.284095 0.654952
vt 0.229429 0.621629
vt 0.229429 0.621629
vt 0.607813 0.681637
vt 0.000000 0.000000
vt 0.000000 0.000000
vt 0.000000 0.000000
vt 0.000000 0.000000
vt 0.769531 0.570312
vt 0.769531 0.570312
vt 0.229429 0.621629
vt 0.229429 0.621629
vt 0.769531 0.570312
vt 0.769531 0.570312
vt 0.769531 0.570312
vt 0.769531 0.570312
vt 0.769531 0.570312
vt 0.229429 0.621629
vt 0.049994 0.658833
vt 0.229429 0.621629
vt 0.064333 0.745644
vt 0.408744 0.668246
vt 0.574219 0.648437
vt 0.574219 0.648437
vt 0.408877 0.667520
vt 0.408877 0.667520
vn 0.0000 -0.6045 -0.7966
vn -0.0000 -0.3344 0.9424
vn 0.0000 0.9999 -0.0131
vn -0.0000 -1.0000 0.0028
vn 0.0000 -0.0000 -1.0000
vn -0.0000 -1.0000 0.0000
vn -0.0000 0.9999 0.0167
vn -0.0000 0.0004 1.0000
vn -0.0000 -0.1052 0.9945
vn 0.0000 0.1789 -0.9839
vn 0.0000 -0.0202 -0.9998
vn -0.0000 -0.3333 0.9428
vn -0.0000 -0.9409 0.3387
vn 0.0000 -0.9992 -0.0398
vn 0.0000 -0.9580 -0.2868
vn 0.0000 0.9615 -0.2747
vn 0.0000 0.9995 0.0313
vn -0.0000 0.0000 1.0000
vn -0.0000 0.9998 0.0222
vn 1.0000 -0.0000 0.0000
vn 1.0000 -0.0000 0.0005
vn -1.0000 0.0000 0.0000
vn 0.0000 0.6958 -0.7182
vn 0.0000 0.3344 -0.9424
vn -0.0000 0.9999 0.0164
vn 0.0000 0.9848 -0.1738
vn 0.0000 -0.9997 -0.0245
vn -0.0000 0.0009 1.0000
vn -0.0000 -1.0000 0.0074
vn -0.0000 -0.9585 0.2852
vn -0.0000 -0.9400 0.3412
vn 0.0000 -0.2604 -0.9655
vn 0.0000 0.6529 -0.7574
vn 0.0000 0.9999 -0.0119
vn -0.0000 0.9859 0.1674
vn -0.0000 -0.9998 0.0204
vn 0.0000 -0.9298 -0.3680
vn -0.0000 -0.9310 0.3651
vn -1.0000 0.0000 0.0003
usemtl Material.001
s off
f 95/105/22 96/106/22 52/107/22 51/108/22
f 97/109/23 101/110/23 59/111/23 54/112/23
f 87/113/24 88/114/24 43/115/24 42/116/24
f 106/117/25 110/118/25 70/119/25 66/120/25
f 85/121/26 92/122/26 48/123/26 40/124/26
f 101/110/27 102/125/27 60/126/27 59/111/27
f 90/127/28 109/128/28 69/129/28 46/130/28
f 94/131/29 91/132/29 47/133/29 50/134/29
f 116/135/30 113/136/30 73/137/30 75/138/30
f 99/139/31 84/140/31 39/141/31 57/142/31
f 114/143/32 117/144/32 76/145/32 74/146/32
f 98/147/33 100/148/33 58/149/33 56/150/33
f 84/140/34 82/151/34 37/152/34 39/141/34
f 117/144/35 116/135/35 75/138/35 76/145/35
f 100/148/36 99/139/36 57/142/36 58/149/36
f 81/153/37 83/154/37 38/155/37 36/156/37
f 114/157/38 113/158/38 31/159/38
f 108/160/39 93/161/39 49/162/39 68/163/39
f 93/164/40 94/131/40 50/134/40 49/165/40
f 32/166/41 33/167/41 35/168/41 34/169/41
f 33/170/41 32/171/41 36/172/41 37/173/41
f 37/174/41 36/175/41 38/176/41 39/177/41
f 40/178/41 55/179/41 53/180/41 38/181/41 42/182/41 43/183/41
f 41/184/41 40/185/41 44/186/41 61/187/41 45/188/41
f 46/189/41 63/190/41 44/191/41 49/192/41 50/193/41
f 47/194/42 62/195/42 46/196/42 50/197/42
f 44/198/41 40/199/41 48/200/41 49/201/41
f 50/202/43 46/203/43 51/204/43 52/205/43
f 39/206/41 56/207/41 58/208/41 57/209/41
f 56/210/41 54/211/41 59/212/41 60/213/41
f 61/214/41 44/215/41 63/216/41 46/217/41 62/218/41 47/219/41 64/220/41 45/221/41
f 72/222/41 65/223/41 66/224/41 70/225/41 69/226/41 71/227/41
f 49/228/41 48/229/41 67/230/41 68/231/41
f 53/232/41 55/233/41 40/234/41 41/235/41 54/236/41 56/237/41 39/238/41 38/239/41
f 72/240/41 71/241/41 73/242/41 74/243/41
f 73/244/43 74/245/43 76/246/43 75/247/43
f 62/248/41 46/249/41 69/250/41 70/251/41
f 109/252/28 111/253/28 71/254/28 69/255/28
f 83/256/44 87/113/44 42/116/44 38/257/44
f 102/258/45 98/259/45 56/260/45 60/261/45
f 90/262/46 95/263/46 51/264/46 46/196/46
f 88/265/39 85/121/39 40/124/39 43/266/39
f 79/267/47 77/268/47 32/269/47 34/270/47
f 96/106/48 94/271/48 50/272/48 52/107/48
f 105/273/49 106/117/49 66/120/49 65/274/49
f 91/132/50 104/275/50 64/276/50 47/133/50
f 78/277/51 80/278/51 35/279/51 33/280/51
f 89/281/52 86/282/52 41/283/52 45/284/52
f 112/285/28 105/273/28 65/274/28 72/286/28
f 80/278/53 79/267/53 34/270/53 35/279/53
f 111/287/54 113/136/54 73/137/54 71/288/54
f 110/118/25 103/289/25 62/290/25 70/119/25
f 114/143/39 112/291/39 72/292/39 74/146/39
f 104/275/50 89/281/50 45/284/50 64/276/50
f 107/293/55 108/160/55 68/163/55 67/294/55
f 77/268/56 81/153/56 36/156/56 32/269/56
f 86/295/57 97/296/57 54/297/57 41/298/57
f 92/299/58 107/300/58 67/301/58 48/302/58
f 82/151/59 78/277/59 33/280/59 37/152/59
f 95/105/22 137/303/22 138/304/22 96/106/22
f 97/109/23 140/305/23 145/306/23 101/110/23
f 87/113/24 128/307/24 129/308/24 88/114/24
f 106/117/25 152/309/25 156/310/25 110/118/25
f 85/121/26 126/311/26 134/312/26 92/122/26
f 101/110/27 145/306/27 146/313/27 102/125/27
f 90/127/28 132/314/28 155/315/28 109/128/28
f 94/131/29 136/316/29 133/317/29 91/132/29
f 116/135/30 161/318/30 159/319/30 113/136/30
f 99/139/31 143/320/31 125/321/31 84/140/31
f 114/143/32 160/322/32 162/323/32 117/144/32
f 98/147/33 142/324/33 144/325/33 100/148/33
f 84/140/34 125/321/34 123/326/34 82/151/34
f 117/144/35 162/323/35 161/318/35 116/135/35
f 100/148/36 144/325/36 143/320/36 99/139/36
f 81/153/37 122/327/37 124/328/37 83/154/37
f 114/157/38 115/329/38 113/158/38
f 108/160/39 154/330/39 135/331/39 93/161/39
f 93/164/40 135/332/40 136/316/40 94/131/40
f 118/333/43 120/334/43 121/335/43 119/336/43
f 119/337/43 123/338/43 122/339/43 118/340/43
f 123/341/43 125/342/43 124/343/43 122/344/43
f 126/345/43 129/346/43 128/347/43 124/348/43 139/349/43 141/350/43
f 127/351/43 131/352/43 147/353/43 130/354/43 126/355/43
f 132/356/43 136/357/43 135/358/43 130/359/43 149/360/43
f 133/361/60 136/362/60 132/363/60 148/364/60
f 130/365/43 135/366/43 134/367/43 126/368/43
f 136/369/41 138/370/41 137/371/41 132/372/41
f 125/373/43 143/374/43 144/375/43 142/376/43
f 142/377/43 146/378/43 145/379/43 140/380/43
f 147/381/43 131/382/43 150/383/43 133/384/43 148/385/43 132/386/43 149/387/43 130/388/43
f 158/389/43 157/390/43 155/391/43 156/392/43 152/393/43 151/394/43
f 135/395/43 154/396/43 153/397/43 134/398/43
f 139/399/43 124/400/43 125/401/43 142/402/43 140/403/43 127/404/43 126/405/43 141/406/43
f 158/407/43 160/408/43 159/409/43 157/410/43
f 159/411/41 161/412/41 162/413/41 160/414/41
f 148/415/43 156/416/43 155/417/43 132/418/43
f 109/252/28 155/419/28 157/420/28 111/253/28
f 83/256/44 124/421/44 128/307/44 87/113/44
f 102/258/45 146/422/45 142/423/45 98/259/45
f 90/262/46 132/363/46 137/424/46 95/263/46
f 88/265/39 129/425/39 126/311/39 85/121/39
f 79/267/47 120/426/47 118/427/47 77/268/47
f 96/106/48 138/304/48 136/428/48 94/271/48
f 105/273/49 151/429/49 152/309/49 106/117/49
f 91/132/50 133/317/50 150/430/50 104/275/50
f 78/277/51 119/431/51 121/432/51 80/278/51
f 89/281/52 131/433/52 127/434/52 86/282/52
f 112/285/28 158/435/28 151/429/28 105/273/28
f 80/278/53 121/432/53 120/426/53 79/267/53
f 111/287/54 157/436/54 159/319/54 113/136/54
f 110/118/25 156/310/25 148/437/25 103/289/25
f 114/143/39 160/322/39 158/438/39 112/291/39
f 104/275/50 150/430/50 131/433/50 89/281/50
f 107/293/55 153/439/55 154/330/55 108/160/55
f 77/268/56 118/427/56 122/327/56 81/153/56
f 86/295/57 127/440/57 140/441/57 97/296/57
f 92/299/58 134/442/58 153/443/58 107/300/58
f 82/151/59 123/326/59 119/431/59 78/277/59
